# xmcd CD database file
#
# Track frame offsets:
#	150
#	21930
#	37637
#	60437
#	92575
#	111287
#	134950
#	152012
#	173987
#	190312
#
# Disc length: 2846 seconds
#
# Revision: 0
# Processed by: cddbd v1.4PL0 Copyright (c) Steve Scherf et al.
# Submitted via: Feurio! 1.63 - http://www.feurio.com
#
DISCID=800b1c0a
DTITLE=Cadillac Blues Band - Starting Out
DYEAR=1993
DGENRE=blues
TTITLE0=Roadband Blues
TTITLE1=Stolen Heart
TTITLE2=The Thrill Is Gone
TTITLE3=Remembering Love
TTITLE4=When The Blues Is Your Only Friend
TTITLE5=Big Bad City
TTITLE6=Final Blues
TTITLE7=I'm Not Ashamed
TTITLE8=Rainy Day
TTITLE9=Come Back Baby
EXTD=in-akustik GmbH
EXTT0=
EXTT1=
EXTT2=
EXTT3=
EXTT4=
EXTT5=
EXTT6=
EXTT7=
EXTT8=
EXTT9=
PLAYORDER=
